<svg xmlns="http://www.w3.org/2000/svg" width="56" height="64" viewBox="0 0 56 64">
  <defs>
    <linearGradient id="root" x1="0" y1="0" x2="1" y2="1">
      <stop offset="0" stop-color="#66513a" stop-opacity=".82"/>
      <stop offset="1" stop-color="#2e2923" stop-opacity=".88"/>
    </linearGradient>
  </defs>
  <path d="M28 1.5 54.5 16.7v30.6L28 62.5 1.5 47.3V16.7Z" fill="url(#root)" stroke="#b28a55" stroke-opacity=".86" stroke-width="1.8"/>
  <path d="M4 42c9-3 10-13 18-14 8-2 12 10 28 5M9 18c8 7 17 5 22 14 4 7 10 9 17 11" fill="none" stroke="#211714" stroke-opacity=".82" stroke-width="4.4" stroke-linecap="round"/>
  <path d="M7 40c9-3 10-11 17-12 7-1 12 9 25 6" fill="none" stroke="#a66a42" stroke-opacity=".82" stroke-width="1.8" stroke-linecap="round"/>
  <circle cx="16" cy="22" r="2.3" fill="#c09558" fill-opacity=".9"/>
  <circle cx="39" cy="45" r="1.8" fill="#c09558" fill-opacity=".82"/>
</svg>